<?xml version="1.0" standalone="no"?>
<!DOCTYPE svg PUBLIC "-//W3C//DTD SVG 20010904//EN"
 "http://www.w3.org/TR/2001/REC-SVG-20010904/DTD/svg10.dtd">
<svg version="1.0" xmlns="http://www.w3.org/2000/svg"
 width="500.000000pt" height="500.000000pt" viewBox="0 0 500.000000 500.000000"
 preserveAspectRatio="xMidYMid meet">
<metadata>
Created by potrace 1.11, written by Peter Selinger 2001-2013
</metadata>
<g transform="translate(0.000000,500.000000) scale(0.100000,-0.100000)"
fill="#000000" stroke="none">
<path d="M1922 4360 c-40 -11 -97 -32 -125 -47 -51 -28 -165 -130 -184 -167
-10 -17 -13 -17 -88 -1 -291 65 -572 -105 -645 -391 -19 -75 -20 -113 -20
-1345 0 -876 3 -1284 11 -1321 6 -29 29 -91 51 -138 54 -114 159 -220 268
-273 143 -70 120 -68 897 -65 l698 3 66 26 c102 40 158 76 234 153 135 137
175 255 175 516 l0 168 203 5 c153 3 215 9 257 22 207 65 361 235 404 447 23
112 23 695 0 806 -43 213 -196 382 -404 447 -42 13 -104 19 -257 22 l-201 5
-4 247 c-3 236 -4 249 -30 318 -53 147 -164 264 -308 325 -96 40 -238 50 -340
24 -61 -16 -64 -16 -73 1 -5 10 -38 46 -74 80 -137 134 -323 182 -511 133z
m1781 -1378 c71 -32 149 -111 183 -185 l29 -62 0 -380 0 -380 -31 -65 c-37
-78 -99 -141 -174 -178 -53 -26 -61 -27 -252 -30 l-198 -4 0 657 0 657 198 -4
c177 -3 202 -6 245 -26z"/>
</g>
</svg>
